<svg width="386" height="301" viewBox="0 0 386 301" fill="none" xmlns="http://www.w3.org/2000/svg">
<path d="M283 44C196.177 44 109.855 43.9839 23.5324 44.0205C12.9124 44.025 5.00957 38.146 1.42601 28.8934C-1.66365 20.9161 1.97535 9.60753 9.78922 3.88858C13.2798 1.33381 17.5502 0.0114778 22.0104 0.0109368C135.996 -0.00298719 249.982 -0.00458903 363.968 0.00687797C375.572 0.00804497 384.805 10.6063 385.317 20.9768C386.017 35.1711 373.003 44.326 361.987 44.1412C335.831 43.7023 309.663 44 283 44Z" fill="white"/>
<path d="M217 300C152.175 300 87.8495 299.98 23.5242 300.02C12.8778 300.026 5.00433 294.133 1.42189 284.887C-1.67153 276.903 1.97813 265.591 9.79502 259.883C13.287 257.333 17.5555 256.01 22.0186 256.01C136.004 255.997 249.99 255.994 363.976 256.009C375.577 256.011 384.803 266.582 385.316 276.985C386.015 291.163 373 300.217 361.981 300.142C313.822 299.812 265.661 300 217 300Z" fill="white"/>
<path d="M343 172C278.678 172 214.856 172.032 151.035 171.97C139.514 171.959 132.522 165.403 129.245 156.468C126.249 148.3 130.529 136.396 138.127 131.55C141.568 129.355 145.667 127.988 150.004 127.989C221.324 128.004 292.645 127.993 363.965 128.007C375.572 128.009 384.804 138.607 385.316 148.972C386.019 163.175 373.004 172.835 361.991 172.076C355.855 171.653 349.665 172 343 172Z" fill="white"/>
</svg>
